<svg width="362" height="20" viewBox="0 0 362 20" fill="none" xmlns="http://www.w3.org/2000/svg">
<path d="M361.5 1C361.5 0.723858 361.276 0.5 361 0.5C360.724 0.5 360.5 0.723858 360.5 1H361.5ZM1.27992 15C1.00377 15 0.808511 15.3382 0.946582 15.5774L3.16667 19.4226C3.30474 19.6618 3.69526 19.6618 3.83333 19.4226L6.05342 15.5774C6.19149 15.3382 5.99623 15 5.72008 15H1.27992ZM3.5 20H4H3.5ZM361 1H361.5H361ZM351.5 10H13V11H351.5V10ZM13 10C7.47715 10 3 14.4772 3 20H4C4 15.0294 8.02944 11 13 11V10ZM360.5 1C360.5 5.97056 356.471 10 351.5 10V11C357.023 11 361.5 6.52285 361.5 1H360.5Z" fill="#5967D1"/>
</svg>
