<svg width="363" height="42" viewBox="0 0 363 42" fill="none" xmlns="http://www.w3.org/2000/svg">
<path d="M1 1C1 0.723858 0.776142 0.5 0.5 0.5C0.223858 0.5 0 0.723858 0 1H1ZM357.78 37C357.504 37 357.309 37.3382 357.447 37.5774L359.667 41.4226C359.805 41.6618 360.195 41.6618 360.333 41.4226L362.553 37.5774C362.691 37.3382 362.496 37 362.22 37H357.78ZM360 42H360.5H360ZM0.5 1H1H0.5ZM21 22H339.5V21H21V22ZM339.5 22C350.546 22 359.5 30.9543 359.5 42H360.5C360.5 30.402 351.098 21 339.5 21V22ZM0 1C0 12.598 9.40202 22 21 22V21C9.95431 21 1 12.0457 1 1H0Z" fill="#5967D1"/>
</svg>
