<svg width="99" height="33" viewBox="0 0 99 33" fill="none" xmlns="http://www.w3.org/2000/svg">
<path d="M98.5 1C98.5 0.723858 98.2761 0.5 98 0.5C97.7239 0.5 97.5 0.723858 97.5 1H98.5ZM0.779915 28C0.503773 28 0.308511 28.3382 0.446582 28.5774L2.66667 32.4226C2.80474 32.6618 3.19526 32.6618 3.33333 32.4226L5.55342 28.5774C5.69149 28.3382 5.49623 28 5.22008 28H0.779915ZM3 33H3.5H3ZM98 1H98.5H98ZM82 16.5H19V17.5H82V16.5ZM19 16.5C9.8873 16.5 2.5 23.8873 2.5 33H3.5C3.5 24.4396 10.4396 17.5 19 17.5V16.5ZM97.5 1C97.5 9.56041 90.5604 16.5 82 16.5V17.5C91.1127 17.5 98.5 10.1127 98.5 1H97.5Z" fill="#5967D1"/>
</svg>
