<svg width="40" height="41" viewBox="0 0 40 41" fill="none" xmlns="http://www.w3.org/2000/svg">
<rect y="0.5" width="40" height="40" rx="10" fill="#1DE378"/>
<path d="M27.1032 14.455C27.2056 14.3506 27.3278 14.2676 27.4626 14.2109C27.5975 14.1543 27.7422 14.1251 27.8885 14.1251C28.0347 14.1251 28.1795 14.1543 28.3144 14.2109C28.4492 14.2676 28.5714 14.3506 28.6737 14.455C29.1027 14.8885 29.1087 15.589 28.6887 16.03L19.8192 26.515C19.7185 26.6256 19.5963 26.7145 19.4601 26.7762C19.3239 26.8379 19.1765 26.8712 19.0269 26.874C18.8774 26.8768 18.7289 26.8491 18.5904 26.7925C18.452 26.736 18.3265 26.6517 18.2217 26.545L12.8247 21.076C12.6166 20.8638 12.5 20.5783 12.5 20.281C12.5 19.9837 12.6166 19.6983 12.8247 19.486C12.9271 19.3816 13.0493 19.2986 13.1841 19.2419C13.319 19.1853 13.4637 19.1561 13.61 19.1561C13.7562 19.1561 13.901 19.1853 14.0359 19.2419C14.1707 19.2986 14.2929 19.3816 14.3952 19.486L18.9732 24.1255L27.0732 14.488L27.1032 14.455Z" fill="white"/>
<path d="M20.0003 34.1803C27.5556 34.1803 33.6803 28.0556 33.6803 20.5003C33.6803 12.9451 27.5556 6.82031 20.0003 6.82031C12.4451 6.82031 6.32031 12.9451 6.32031 20.5003C6.32031 28.0556 12.4451 34.1803 20.0003 34.1803Z" stroke="white" stroke-width="2" stroke-linecap="round" stroke-linejoin="round"/>
</svg>
