<svg width="46" height="46" viewBox="0 0 46 46" fill="none" xmlns="http://www.w3.org/2000/svg">
<rect width="46" height="46" rx="23" fill="#5967D1"/>
<path d="M15 31C14.45 31 13.9793 30.8043 13.588 30.413C13.1967 30.0217 13.0007 29.5507 13 29V17C13 16.45 13.196 15.9793 13.588 15.588C13.98 15.1967 14.4507 15.0007 15 15H31C31.55 15 32.021 15.196 32.413 15.588C32.805 15.98 33.0007 16.4507 33 17V29C33 29.55 32.8043 30.021 32.413 30.413C32.0217 30.805 31.5507 31.0007 31 31H15ZM23 24L31 19V17L23 22L15 17V19L23 24Z" fill="white"/>
</svg>
