<svg width="34" height="34" viewBox="0 0 34 34" fill="none" xmlns="http://www.w3.org/2000/svg">
<path d="M16.9999 8.13086C21.8986 8.13086 25.8695 12.1018 25.8695 17.0004C25.8695 21.8991 21.8986 25.87 16.9999 25.87C15.4325 25.8725 13.8926 25.4577 12.5386 24.6682L8.13393 25.87L9.3331 21.4636C8.5429 20.1091 8.12776 18.5686 8.13038 17.0004C8.13038 12.1018 12.1013 8.13086 16.9999 8.13086ZM13.9772 12.8317L13.7998 12.8388C13.685 12.8458 13.5727 12.876 13.4699 12.9275C13.3736 12.982 13.2858 13.0501 13.2091 13.1297C13.1027 13.23 13.0423 13.3169 12.9776 13.4012C12.6495 13.8277 12.4729 14.3514 12.4756 14.8895C12.4774 15.3241 12.5909 15.7472 12.7683 16.1427C13.131 16.9428 13.728 17.7898 14.5156 18.5748C14.7054 18.7637 14.8916 18.9535 15.0921 19.13C16.0708 19.9916 17.237 20.613 18.498 20.9447L19.0018 21.0219C19.1659 21.0307 19.33 21.0183 19.495 21.0103C19.7533 20.997 20.0055 20.9271 20.2338 20.8055C20.3499 20.7456 20.4633 20.6805 20.5735 20.6103C20.5735 20.6103 20.6116 20.5855 20.6844 20.5305C20.8041 20.4418 20.8777 20.3788 20.9771 20.2751C21.0507 20.1988 21.1145 20.1092 21.1633 20.0072C21.2325 19.8626 21.3017 19.5868 21.3301 19.3571C21.3513 19.1814 21.3451 19.0857 21.3425 19.0262C21.3389 18.9313 21.26 18.8329 21.174 18.7912L20.6577 18.5597C20.6577 18.5597 19.8861 18.2235 19.4142 18.0089C19.3649 17.9873 19.312 17.975 19.2581 17.9725C19.1974 17.9663 19.1361 17.9731 19.0783 17.9925C19.0205 18.012 18.9675 18.0436 18.9229 18.0852C18.9184 18.0834 18.859 18.1339 18.2177 18.9109C18.1809 18.9604 18.1302 18.9978 18.0721 19.0183C18.014 19.0388 17.951 19.0416 17.8913 19.0262C17.8336 19.0107 17.7769 18.9912 17.7219 18.9677C17.6119 18.9216 17.5738 18.9038 17.4984 18.8719C16.9894 18.6498 16.518 18.3496 16.1015 17.9823C15.9897 17.8847 15.8859 17.7783 15.7795 17.6754C15.4306 17.3412 15.1264 16.9632 14.8748 16.5507L14.8225 16.4665C14.7849 16.4099 14.7545 16.3488 14.732 16.2846C14.6983 16.1543 14.7861 16.0496 14.7861 16.0496C14.7861 16.0496 15.0016 15.8137 15.1019 15.686C15.1994 15.5618 15.2819 15.4412 15.3351 15.3551C15.4398 15.1866 15.4726 15.0136 15.4176 14.8797C15.1693 14.273 14.912 13.669 14.6477 13.0694C14.5954 12.9506 14.4402 12.8654 14.2992 12.8486C14.2513 12.8433 14.2034 12.8379 14.1555 12.8344C14.0364 12.8285 13.917 12.8297 13.798 12.8379L13.9772 12.8317Z" fill="white"/>
</svg>
