<svg width="46" height="46" viewBox="0 0 46 46" fill="none" xmlns="http://www.w3.org/2000/svg">
<rect width="46" height="46" rx="23" fill="#5967D1"/>
<path d="M23 11C29.6276 11 35 16.3724 35 23C35 29.6276 29.6276 35 23 35C20.8793 35.0034 18.796 34.4422 16.964 33.374L11.0048 35L12.6272 29.0384C11.5581 27.2058 10.9965 25.1216 11 23C11 16.3724 16.3724 11 23 11ZM18.9104 17.36L18.6704 17.3696C18.515 17.3791 18.3632 17.4199 18.224 17.4896C18.0938 17.5633 17.975 17.6555 17.8712 17.7632C17.7272 17.8988 17.6456 18.0164 17.558 18.1304C17.1142 18.7075 16.8752 19.416 16.8788 20.144C16.8812 20.732 17.0348 21.3044 17.2748 21.8396C17.7656 22.922 18.5732 24.068 19.6388 25.13C19.8956 25.3856 20.1476 25.6424 20.4188 25.8812C21.7429 27.0469 23.3207 27.8876 25.0268 28.3364L25.7084 28.4408C25.9304 28.4528 26.1524 28.436 26.3756 28.4252C26.7251 28.4071 27.0663 28.3125 27.3752 28.148C27.5324 28.067 27.6857 27.979 27.8348 27.884C27.8348 27.884 27.8864 27.8504 27.9848 27.776C28.1468 27.656 28.2464 27.5708 28.3808 27.4304C28.4804 27.3272 28.5668 27.206 28.6328 27.068C28.7264 26.8724 28.82 26.4992 28.8584 26.1884C28.8872 25.9508 28.8788 25.8212 28.8752 25.7408C28.8704 25.6124 28.7636 25.4792 28.6472 25.4228L27.9488 25.1096C27.9488 25.1096 26.9048 24.6548 26.2664 24.3644C26.1996 24.3352 26.128 24.3185 26.0552 24.3152C25.9731 24.3068 25.8901 24.316 25.8119 24.3423C25.7337 24.3686 25.662 24.4113 25.6016 24.4676C25.5956 24.4652 25.5152 24.5336 24.6476 25.5848C24.5978 25.6517 24.5292 25.7023 24.4506 25.7301C24.3719 25.7578 24.2868 25.7616 24.206 25.7408C24.1278 25.7198 24.0512 25.6934 23.9768 25.6616C23.828 25.5992 23.7764 25.5752 23.6744 25.532C22.9857 25.2314 22.348 24.8254 21.7844 24.3284C21.6332 24.1964 21.4928 24.0524 21.3488 23.9132C20.8767 23.4611 20.4653 22.9496 20.1248 22.3916L20.054 22.2776C20.0032 22.201 19.962 22.1184 19.9316 22.0316C19.886 21.8552 20.0048 21.7136 20.0048 21.7136C20.0048 21.7136 20.2964 21.3944 20.432 21.2216C20.564 21.0536 20.6756 20.8904 20.7476 20.774C20.8892 20.546 20.9336 20.312 20.8592 20.1308C20.5232 19.31 20.1752 18.4928 19.8176 17.6816C19.7468 17.5208 19.5368 17.4056 19.346 17.3828C19.2812 17.3756 19.2164 17.3684 19.1516 17.3636C18.9905 17.3556 18.829 17.3572 18.668 17.3684L18.9104 17.36Z" fill="white"/>
</svg>
