<svg width="34" height="34" viewBox="0 0 34 34" fill="none" xmlns="http://www.w3.org/2000/svg">
<path d="M22.913 11.0874C24.953 13.0978 25.7217 15.9065 25.2388 18.528C25.6428 19.2375 25.8695 20.0654 25.8695 20.9425C25.8695 22.2493 25.3504 23.5027 24.4263 24.4267C23.5022 25.3508 22.2488 25.87 20.942 25.87C20.0649 25.87 19.237 25.6433 18.5275 25.2393C15.906 25.7222 13.0973 24.9535 11.0869 22.9135C9.04689 20.903 8.2782 18.0943 8.7611 15.4729C8.35704 14.7633 8.13037 13.9355 8.13037 13.0584C8.13037 11.7515 8.64952 10.4982 9.57361 9.5741C10.4977 8.65001 11.751 8.13086 13.0579 8.13086C13.935 8.13086 14.7628 8.35753 15.4724 8.76158C18.0939 8.27869 20.9025 9.04738 22.913 11.0874ZM17.0394 22.0856C19.8678 22.0856 21.277 20.7256 21.277 18.8926C21.277 17.7198 20.7252 16.4683 18.5866 15.9854L16.6254 15.5517C15.8765 15.3842 15.0289 15.1575 15.0289 14.4578C15.0289 13.7483 15.6202 13.2555 16.7043 13.2555C18.902 13.2555 18.695 14.7633 19.7889 14.7633C20.3605 14.7633 20.8533 14.4283 20.8533 13.8468C20.8533 12.4967 18.695 11.4816 16.862 11.4816C14.8811 11.4816 12.7623 12.3291 12.7623 14.5761C12.7623 15.6601 13.1466 16.8132 15.2753 17.3454L17.9263 18.0155C18.7246 18.2126 18.9217 18.6561 18.9217 19.07C18.9217 19.7401 18.2515 20.4004 17.0394 20.4004C14.6643 20.4004 14.9895 18.5772 13.7182 18.5772C13.1466 18.5772 12.7327 18.9714 12.7327 19.5332C12.7327 20.6271 14.0434 22.0856 17.0394 22.0856Z" fill="white"/>
</svg>
