<svg width="40" height="40" viewBox="0 0 40 40" fill="none" xmlns="http://www.w3.org/2000/svg">
<rect width="40" height="40" rx="20" fill="url(#paint0_linear_192_7608)" fill-opacity="0.5"/>
<path d="M22.8836 18.2236C22.8836 18.3609 22.8291 18.4926 22.732 18.5897C22.6349 18.6868 22.5032 18.7414 22.3659 18.7414H18.7414V22.3659C18.7414 22.5032 18.6868 22.6349 18.5897 22.732C18.4926 22.8291 18.3609 22.8836 18.2236 22.8836C18.0863 22.8836 17.9546 22.8291 17.8575 22.732C17.7604 22.6349 17.7058 22.5032 17.7058 22.3659V18.7414H14.0813C13.944 18.7414 13.8123 18.6868 13.7152 18.5897C13.6181 18.4926 13.5635 18.3609 13.5635 18.2236C13.5635 18.0863 13.6181 17.9546 13.7152 17.8575C13.8123 17.7604 13.944 17.7058 14.0813 17.7058H17.7058V14.0813C17.7058 13.944 17.7604 13.8123 17.8575 13.7152C17.9546 13.6181 18.0863 13.5635 18.2236 13.5635C18.3609 13.5635 18.4926 13.6181 18.5897 13.7152C18.6868 13.8123 18.7414 13.944 18.7414 14.0813V17.7058H22.3659C22.5032 17.7058 22.6349 17.7604 22.732 17.8575C22.8291 17.9546 22.8836 18.0863 22.8836 18.2236ZM33.0879 33.0879C33.0398 33.136 32.9827 33.1742 32.9198 33.2002C32.8569 33.2263 32.7896 33.2397 32.7215 33.2397C32.6535 33.2397 32.5861 33.2263 32.5232 33.2002C32.4604 33.1742 32.4033 33.136 32.3552 33.0879L25.5334 26.2661C23.4302 28.178 20.6626 29.1915 17.822 29.0901C14.9814 28.9886 12.2932 27.7802 10.3317 25.7231C8.37027 23.6659 7.29116 20.9232 7.32499 18.081C7.35882 15.2389 8.5029 12.5226 10.5128 10.5128C12.5226 8.5029 15.2389 7.35882 18.081 7.32499C20.9232 7.29116 23.6659 8.37027 25.7231 10.3317C27.7802 12.2932 28.9886 14.9814 29.0901 17.822C29.1915 20.6626 28.178 23.4302 26.2661 25.5334L33.0879 32.3552C33.136 32.4033 33.1742 32.4604 33.2002 32.5232C33.2263 32.5861 33.2397 32.6535 33.2397 32.7215C33.2397 32.7896 33.2263 32.8569 33.2002 32.9198C33.1742 32.9827 33.136 33.0398 33.0879 33.0879ZM18.2236 28.0615C20.1693 28.0615 22.0714 27.4845 23.6892 26.4035C25.3071 25.3225 26.568 23.786 27.3126 21.9884C28.0572 20.1907 28.252 18.2127 27.8724 16.3043C27.4928 14.396 26.5559 12.643 25.18 11.2672C23.8042 9.89131 22.0512 8.95434 20.1429 8.57475C18.2345 8.19515 16.2564 8.38997 14.4588 9.13458C12.6612 9.87918 11.1247 11.1401 10.0437 12.758C8.9627 14.3758 8.38571 16.2778 8.38571 18.2236C8.38846 20.8319 9.42582 23.3326 11.2702 25.177C13.1146 27.0214 15.6153 28.0587 18.2236 28.0615Z" fill="white"/>
<defs>
<linearGradient id="paint0_linear_192_7608" x1="20" y1="0" x2="20" y2="40" gradientUnits="userSpaceOnUse">
<stop stop-color="white"/>
<stop offset="1" stop-color="white" stop-opacity="0"/>
</linearGradient>
</defs>
</svg>
