<svg width="46" height="46" viewBox="0 0 46 46" fill="none" xmlns="http://www.w3.org/2000/svg">
<rect width="46" height="46" rx="23" fill="#5967D1"/>
<g clip-path="url(#clip0_121_2468)">
<path fill-rule="evenodd" clip-rule="evenodd" d="M36.3583 15.939C36.552 15.302 36.3583 14.833 35.4308 14.833H32.3683C31.589 14.833 31.2297 15.2378 31.0348 15.6847C31.0348 15.6847 29.4773 19.4133 27.2712 21.8353C26.5572 22.5377 26.2328 22.7605 25.8432 22.7605C25.6483 22.7605 25.3555 22.5377 25.3555 21.8995V15.939C25.3555 15.1737 25.1408 14.833 24.4922 14.833H19.6762C19.1897 14.833 18.8968 15.1877 18.8968 15.5248C18.8968 16.2493 20.0005 16.4173 20.1137 18.4567V22.8877C20.1137 23.8595 19.9352 24.0357 19.5455 24.0357C18.5072 24.0357 15.9813 20.2895 14.4822 16.0032C14.1917 15.169 13.8977 14.833 13.1148 14.833H10.05C9.175 14.833 9 15.2378 9 15.6847C9 16.4803 10.0383 20.433 13.8358 25.6608C16.3675 29.2308 19.9317 31.1663 23.1785 31.1663C25.1257 31.1663 25.366 30.737 25.366 29.9962V27.2977C25.366 26.4378 25.5503 26.2663 26.1675 26.2663C26.6225 26.2663 27.4007 26.4903 29.2183 28.2112C31.295 30.2517 31.6368 31.1663 32.8058 31.1663H35.8683C36.7433 31.1663 37.182 30.737 36.93 29.8877C36.6523 29.043 35.6607 27.8168 34.3458 26.362C33.6318 25.5337 32.5608 24.6412 32.2353 24.1943C31.7815 23.6215 31.911 23.366 32.2353 22.8562C32.2353 22.8562 35.9687 17.6925 36.3572 15.939" fill="white"/>
</g>
<defs>
<clipPath id="clip0_121_2468">
<rect width="28" height="28" fill="white" transform="translate(9 9)"/>
</clipPath>
</defs>
</svg>
