<svg width="132" height="101" viewBox="0 0 132 101" fill="none" xmlns="http://www.w3.org/2000/svg">
<path fill-rule="evenodd" clip-rule="evenodd" d="M98.8574 11.6564C106.127 16.421 116.611 20.8086 125.064 22.6858C134.466 24.7651 129.476 29.6754 121.723 33.2331C116.452 35.6702 110.664 39.5323 104.1 45.1577C102.256 46.7367 101.719 46.0985 101.326 42.025C100.392 31.9538 100.862 32.6917 96.7575 34.7892C93.262 36.5559 87.2688 41.5866 76.4991 51.7952C72.9108 55.1778 61.2193 65.9738 58.5184 68.4449C46.098 79.9938 29.2929 86.8998 14.8945 86.333C3.64371 85.8933 5.10887 78.5019 14.2458 78.6745C25.3352 78.9287 37.2739 75.2976 48.1465 68.3676C52.2621 65.7444 55.5511 62.8408 73.3518 46.2481C92.0047 28.824 92.4153 29.1965 98.503 26.0083C98.1104 24.2405 96.3833 16.9234 95.9679 15.4584C95.0586 12.4056 96.7123 10.2561 98.8574 11.6564Z" fill="#5967D1"/>
</svg>
