<svg width="165" height="165" viewBox="0 0 165 165" fill="none" xmlns="http://www.w3.org/2000/svg">
<path fill-rule="evenodd" clip-rule="evenodd" d="M124.38 56.8688C119.801 54.8151 121.305 63.5782 127.18 73.1996L130.226 78.1653C112.787 70.6639 96.5842 63.3438 77.6367 65.1234C72.6343 65.5894 71.4414 65.4517 69.1549 64.1155C53.5013 54.9407 25.7827 53.7212 8.67819 61.3905C2.36963 64.1951 0.621553 66.5317 2.40331 69.6792C4.31564 73.0482 5.24299 73.1849 12.387 70.8701C29.2937 65.3226 56.946 64.3307 61.6309 69.0821C61.7185 69.171 60.7398 69.698 59.4954 70.312C41.8095 78.642 45.1298 100.415 65.2245 107.751C82.367 113.969 95.2272 92.8813 83.7046 77.5317C78.6853 70.8329 103.677 74.9161 125.299 84.3369C130.099 86.4352 134.193 88.3536 134.412 88.5759C134.675 88.8422 130.383 89.0453 124.943 88.9787C108.049 88.9094 102.283 90.5666 103.831 94.9069C105.209 98.6276 109.351 100.148 116.436 99.3816C129.497 97.9755 139.797 98.593 151.666 101.34C165.742 104.626 159.86 95.7122 153.258 92.501C143.794 87.9952 130.026 71.6192 128.608 63.0333C128.278 60.6438 126.23 57.6723 124.38 56.8688ZM80.3707 83.6215C82.5998 95.0851 68.2798 102.987 57.5568 96.1317C50.833 91.8141 60.5489 79.9576 73.5854 76.6497C76.5558 75.9103 79.4456 78.8412 80.3707 83.6215Z" fill="#5967D1"/>
</svg>
