<svg width="124" height="112" viewBox="0 0 124 112" fill="none" xmlns="http://www.w3.org/2000/svg">
<path fill-rule="evenodd" clip-rule="evenodd" d="M108.509 75.9747C106.104 84.327 105.007 95.6394 105.709 104.269C106.499 113.866 100.334 110.548 94.646 104.192C90.7613 99.8755 85.3624 95.4858 78.0496 90.8751C75.9965 89.5794 76.4479 88.8785 80.2235 87.2997C89.57 83.4338 89.004 84.1012 85.7879 80.7986C83.068 77.9806 76.492 73.74 63.5587 66.4646C59.2673 64.035 45.5006 56.0524 42.3423 54.2015C27.641 45.7448 16.081 31.7279 12.3713 17.8041C9.46945 6.9251 16.964 6.14254 19.4968 14.9231C22.5282 25.5932 29.5224 35.9274 39.3537 44.2691C43.0752 47.4267 46.8204 49.7118 67.9291 61.8198C90.0839 74.4964 89.8492 74.9988 94.6928 79.8736C96.2659 78.9766 102.747 75.166 104.024 74.3366C106.672 72.5665 109.214 73.5118 108.509 75.9747Z" fill="#5967D1"/>
</svg>
