<svg width="124" height="148" viewBox="0 0 124 148" fill="none" xmlns="http://www.w3.org/2000/svg">
<path fill-rule="evenodd" clip-rule="evenodd" d="M17.1578 69.6313C20.1197 66.1267 22.3469 73.9445 21.3119 84.1988L20.7662 89.4967C32.1711 76.4141 42.6289 63.97 58.9493 57.9398C63.2566 56.3445 64.1853 55.7591 65.5412 53.7532C74.8125 39.9977 97.1753 28.0252 114.307 27.5784C120.616 27.3939 122.982 28.628 122.758 31.9271C122.515 35.4605 121.805 35.94 115.001 36.8589C98.872 38.9762 75.6887 49.0998 73.7075 54.8695C73.6705 54.9774 74.6856 55.0246 75.9541 55.0382C93.8266 54.906 99.7051 74.1651 86.0456 88.1616C74.3772 100.069 55.4344 87.7776 58.8579 70.5675C60.3442 63.0604 41.3616 76.3143 27.2686 92.634C24.1428 96.2625 21.5277 99.4635 21.435 99.7334C21.324 100.057 24.9419 98.5259 29.3987 96.3188C43.2954 89.5771 48.7034 88.6615 49.1444 92.8515C49.4807 96.4632 46.6686 99.3554 40.5264 101.527C29.2053 105.536 20.9608 110.12 12.2645 117.08C1.96378 125.358 3.28473 115.684 7.45529 110.425C13.4726 102.967 18.3406 84.0225 16.1121 76.3851C15.4386 74.2851 15.9515 71.0254 17.1578 69.6313ZM64.0151 74.2675C66.7137 84.5977 81.6426 85.4441 87.768 75.5515C91.6013 69.3326 78.9024 63.4049 66.849 65.8367C64.1082 66.4026 62.8862 69.9615 64.0151 74.2675Z" fill="#5967D1"/>
</svg>
