<svg width="116" height="125" viewBox="0 0 116 125" fill="none" xmlns="http://www.w3.org/2000/svg">
<path fill-rule="evenodd" clip-rule="evenodd" d="M96.2523 115.744C94.8693 108.063 87.1239 86.5504 91.6286 72.7806C94.6122 63.7074 90.9659 62.2456 87.183 70.9738C84.4234 77.368 83.3076 86.3834 84.2758 94.5198C79.6477 87.1742 59.2476 52.8711 30.0135 9.19365C24.1201 0.423103 22.7665 -0.155805 21.0194 2.50995C18.8749 5.89908 18.7387 9.19056 20.6331 12.256C20.6856 12.3319 78.5778 104.291 77.6026 104.909C77.4508 105.014 75.7878 104.313 73.7634 103.412C60.1175 97.1393 51.6558 96.9862 51.143 103.061C50.8839 105.932 54.5119 108.586 62.896 111.709C66.3733 113.007 74.0335 116.462 79.9957 119.408C95.1581 126.82 98.1292 126.169 96.2523 115.744Z" fill="#5967D1"/>
</svg>
