<svg width="95" height="85" viewBox="0 0 95 85" fill="none" xmlns="http://www.w3.org/2000/svg">
<path fill-rule="evenodd" clip-rule="evenodd" d="M87.058 1.27448C80.6698 3.67005 63.3874 13.7088 50.8392 11.9977C42.5685 10.8569 41.8841 14.222 49.9836 16.1042C55.9155 17.4731 63.8432 17.0168 70.6877 14.9064C65.098 20.0397 38.8041 42.9691 5.83648 74.9671C-0.779865 81.4124 -1.06511 82.6672 1.50158 83.7509C4.75271 85.0628 7.60447 84.6629 9.943 82.5525C10 82.4955 79.9847 18.2717 80.6692 19.0132C80.7833 19.1272 80.4416 20.6674 79.9853 22.5496C76.7342 35.269 77.9314 42.5693 83.2359 42.0562C85.7455 41.8281 87.4572 38.2917 88.8261 30.5917C89.3965 27.3976 91.1646 20.2679 92.7617 14.6783C96.7543 0.475954 95.7276 -1.97666 87.058 1.27448Z" fill="#5967D1"/>
</svg>
