<svg width="105" height="33" viewBox="0 0 105 33" fill="none" xmlns="http://www.w3.org/2000/svg">
<path d="M1.5 1C1.5 0.723858 1.27614 0.5 1 0.5C0.723858 0.5 0.5 0.723858 0.5 1H1.5ZM99.2799 28C99.0038 28 98.8085 28.3382 98.9466 28.5774L101.167 32.4226C101.305 32.6618 101.695 32.6618 101.833 32.4226L104.053 28.5774C104.191 28.3382 103.996 28 103.72 28H99.2799ZM101.5 33H102H101.5ZM1 1H1.5H1ZM17 17.5H85.5V16.5H17V17.5ZM85.5 17.5C94.0604 17.5 101 24.4396 101 33H102C102 23.8873 94.6127 16.5 85.5 16.5V17.5ZM0.5 1C0.5 10.1127 7.8873 17.5 17 17.5V16.5C8.43959 16.5 1.5 9.56041 1.5 1H0.5Z" fill="#5967D1"/>
</svg>
