<svg width="93" height="56" viewBox="0 0 93 56" fill="none" xmlns="http://www.w3.org/2000/svg">
<rect width="93" height="56" rx="10" fill="#0A0C13" fill-opacity="0.5"/>
<path d="M48.8962 49.4703C48.2789 49.8552 47.5465 50.0521 46.699 50.061C45.8516 50.0699 45.1082 49.8885 44.469 49.5168L20.2405 35.4282C19.8447 35.1981 19.6431 34.9251 19.6358 34.6095C19.6266 34.2928 19.8132 34.0152 20.1954 33.7769C20.5758 33.5397 21.0291 33.4183 21.5551 33.4127C22.0793 33.4083 22.5384 33.5207 22.9323 33.7498L46.6256 47.5271L69.5059 33.2602C69.8881 33.0219 70.3413 32.9005 70.8656 32.8961C71.3898 32.8917 71.8498 33.0035 72.2455 33.2314C72.6395 33.4605 72.841 33.7334 72.8502 34.0502C72.8593 34.3647 72.6728 34.6411 72.2905 34.8795L48.8962 49.4703ZM48.5694 36.3054C47.9521 36.6903 47.2187 36.8867 46.3694 36.8945C45.522 36.9034 44.7795 36.7226 44.1422 36.3519L19.9109 22.2617C19.517 22.0326 19.3154 21.7597 19.3062 21.443C19.297 21.1262 19.4836 20.8487 19.8658 20.6104C20.2462 20.3731 20.6995 20.2518 21.2255 20.2462C21.7497 20.2418 22.2088 20.3542 22.6027 20.5832L46.296 34.3606L69.1763 20.0937C69.5585 19.8554 70.0118 19.734 70.536 19.7296C71.0602 19.7252 71.5211 19.8375 71.9187 20.0665C72.3145 20.2967 72.5161 20.5696 72.5234 20.8853C72.5307 21.2009 72.3442 21.4774 71.9637 21.7146L48.5694 36.3054Z" fill="white"/>
</svg>
