<svg width="60" height="60" viewBox="0 0 60 60" fill="none" xmlns="http://www.w3.org/2000/svg">
<path d="M41.5 18.5C45.4675 22.41 46.9625 27.8725 46.0233 32.9708C46.8092 34.3508 47.25 35.9608 47.25 37.6667C47.25 40.2083 46.2403 42.6459 44.4431 44.4431C42.6459 46.2403 40.2083 47.25 37.6667 47.25C35.9608 47.25 34.3508 46.8092 32.9708 46.0233C27.8725 46.9625 22.41 45.4675 18.5 41.5C14.5325 37.59 13.0375 32.1275 13.9767 27.0292C13.1908 25.6492 12.75 24.0392 12.75 22.3333C12.75 19.7917 13.7597 17.3541 15.5569 15.5569C17.3541 13.7597 19.7917 12.75 22.3333 12.75C24.0392 12.75 25.6492 13.1908 27.0292 13.9767C32.1275 13.0375 37.59 14.5325 41.5 18.5ZM30.0767 39.89C35.5775 39.89 38.3183 37.245 38.3183 33.68C38.3183 31.3992 37.245 28.965 33.0858 28.0258L29.2717 27.1825C27.815 26.8567 26.1667 26.4158 26.1667 25.055C26.1667 23.675 27.3167 22.7167 29.425 22.7167C33.6992 22.7167 33.2967 25.6492 35.4242 25.6492C36.5358 25.6492 37.4942 24.9975 37.4942 23.8667C37.4942 21.2408 33.2967 19.2667 29.7317 19.2667C25.8792 19.2667 21.7583 20.915 21.7583 25.285C21.7583 27.3933 22.5058 29.6358 26.6458 30.6708L31.8017 31.9742C33.3542 32.3575 33.7375 33.22 33.7375 34.025C33.7375 35.3283 32.4342 36.6125 30.0767 36.6125C25.4575 36.6125 26.09 33.0667 23.6175 33.0667C22.5058 33.0667 21.7008 33.8333 21.7008 34.9258C21.7008 37.0533 24.25 39.89 30.0767 39.89Z" fill="white"/>
</svg>
