<svg width="60" height="60" viewBox="0 0 60 60" fill="none" xmlns="http://www.w3.org/2000/svg">
<path d="M30.0018 11.6665C40.1273 11.6665 48.3351 19.8743 48.3351 29.9998C48.3351 40.1253 40.1273 48.3332 30.0018 48.3332C26.7619 48.3384 23.579 47.481 20.7801 45.849L11.6758 48.3332L14.1545 39.2252C12.5212 36.4254 11.6631 33.2412 11.6685 29.9998C11.6685 19.8743 19.8763 11.6665 30.0018 11.6665ZM23.7538 21.3832L23.3871 21.3978C23.1498 21.4123 22.9178 21.4747 22.7051 21.5812C22.5063 21.6938 22.3247 21.8346 22.1662 21.9992C21.9461 22.2063 21.8215 22.386 21.6876 22.5602C21.0095 23.4418 20.6444 24.5242 20.65 25.6365C20.6536 26.5348 20.8883 27.4093 21.255 28.227C22.0048 29.8807 23.2386 31.6315 24.8666 33.254C25.259 33.6445 25.644 34.0368 26.0583 34.4017C28.0812 36.1827 30.4918 37.4671 33.0983 38.1527L34.1397 38.3122C34.4788 38.3305 34.818 38.3048 35.159 38.2883C35.6929 38.2608 36.2143 38.1162 36.6861 37.8648C36.9262 37.7412 37.1605 37.6066 37.3883 37.4615C37.3883 37.4615 37.4672 37.4102 37.6175 37.2965C37.865 37.1132 38.0172 36.983 38.2225 36.7685C38.3747 36.6108 38.5066 36.4257 38.6075 36.2148C38.7505 35.916 38.8935 35.3458 38.9521 34.871C38.9961 34.508 38.9833 34.31 38.9778 34.1872C38.9705 33.991 38.8073 33.7875 38.6295 33.7013L37.5625 33.2228C37.5625 33.2228 35.9675 32.528 34.9921 32.0843C34.8901 32.0398 34.7807 32.0143 34.6695 32.0092C34.544 31.9963 34.4173 32.0104 34.2978 32.0506C34.1782 32.0907 34.0687 32.156 33.9765 32.242C33.9673 32.2383 33.8445 32.3428 32.519 33.9488C32.4429 34.0511 32.3381 34.1283 32.218 34.1708C32.0978 34.2132 31.9677 34.2189 31.8443 34.1872C31.7249 34.1551 31.6079 34.1147 31.4941 34.0662C31.2668 33.9708 31.188 33.9342 31.0321 33.8682C29.9799 33.409 29.0057 32.7886 28.1446 32.0293C27.9136 31.8277 27.6992 31.6077 27.4791 31.395C26.7579 30.7043 26.1293 29.9228 25.6091 29.0703L25.501 28.8962C25.4233 28.7791 25.3605 28.6529 25.314 28.5203C25.2443 28.2508 25.4258 28.0345 25.4258 28.0345C25.4258 28.0345 25.8713 27.5468 26.0785 27.2828C26.2801 27.0262 26.4506 26.7768 26.5606 26.599C26.777 26.2507 26.8448 25.8932 26.7311 25.6163C26.2178 24.3623 25.6861 23.1138 25.1398 21.8745C25.0316 21.6288 24.7108 21.4528 24.4193 21.418C24.3203 21.407 24.2213 21.396 24.1223 21.3887C23.8761 21.3764 23.6294 21.3789 23.3835 21.396L23.7538 21.3832Z" fill="white"/>
</svg>
