<svg width="40" height="41" viewBox="0 0 40 41" fill="none" xmlns="http://www.w3.org/2000/svg">
<rect y="0.5" width="40" height="40" rx="10" fill="#D83D3D"/>
<path d="M12.9581 12.5803C12.7252 12.5803 12.5019 12.6728 12.3371 12.8373C12.1725 13.0021 12.0801 13.2255 12.0801 13.4584C12.0801 13.6913 12.1725 13.9146 12.3371 14.0794L12.9581 12.5803ZM12.9581 12.5803C13.191 12.5803 13.4144 12.6728 13.5792 12.8373L12.9581 12.5803ZM12.2664 12.7666L12.2663 12.7667C12.083 12.9502 11.9801 13.199 11.9801 13.4584C11.9801 13.7178 12.083 13.9665 12.2663 14.1501L12.2664 14.1501L26.3264 28.2101C26.4157 28.3057 26.5234 28.3823 26.6429 28.4356C26.7629 28.4891 26.8926 28.5179 27.024 28.5202C27.1554 28.5225 27.286 28.4983 27.4078 28.4491C27.5297 28.3999 27.6404 28.3266 27.7334 28.2336C27.8263 28.1407 27.8996 28.03 27.9488 27.9081C27.9981 27.7862 28.0222 27.6557 28.0199 27.5242C28.0176 27.3928 27.9888 27.2632 27.9353 27.1431C27.8821 27.0236 27.8054 26.916 27.7099 26.8266L13.6499 12.7666L13.6498 12.7666C13.4663 12.5833 13.2175 12.4803 12.9581 12.4803C12.6987 12.4803 12.45 12.5833 12.2664 12.7666Z" fill="white" stroke="white" stroke-width="0.2"/>
<path d="M27.7115 12.7667L27.7114 12.7666C27.5278 12.5833 27.2791 12.4803 27.0197 12.4803C26.7603 12.4803 26.5115 12.5833 26.328 12.7666L26.3279 12.7666L12.2667 26.8278L12.2667 26.8278L12.2643 26.8304C12.0914 27.0159 11.9972 27.2613 12.0017 27.5149C12.0062 27.7685 12.1089 28.0105 12.2883 28.1898C12.4676 28.3691 12.7095 28.4719 12.9631 28.4763C13.2167 28.4808 13.4621 28.3867 13.6477 28.2138L13.6477 28.2138L13.6502 28.2113L27.7114 14.1501L27.7115 14.1501C27.8948 13.9665 27.9977 13.7178 27.9977 13.4584C27.9977 13.199 27.8948 12.9502 27.7115 12.7667Z" fill="white" stroke="white" stroke-width="0.2"/>
<path d="M20.0003 34.1803C27.5556 34.1803 33.6803 28.0556 33.6803 20.5003C33.6803 12.9451 27.5556 6.82031 20.0003 6.82031C12.4451 6.82031 6.32031 12.9451 6.32031 20.5003C6.32031 28.0556 12.4451 34.1803 20.0003 34.1803Z" stroke="white" stroke-width="2" stroke-linecap="round" stroke-linejoin="round"/>
</svg>
