<svg width="41" height="41" viewBox="0 0 41 41" fill="none" xmlns="http://www.w3.org/2000/svg">
<circle cx="20.7428" cy="20.2572" r="20.2572" fill="white"/>
<g clip-path="url(#clip0_2235_2591)">
<path opacity="0.993" fill-rule="evenodd" clip-rule="evenodd" d="M14.5839 8.83594C18.5628 8.83594 22.5417 8.83594 26.5207 8.83594C28.6359 9.14356 30.241 10.2136 31.336 12.0462C31.7509 12.801 32.0147 13.5998 32.1273 14.4426C32.1273 18.4215 32.1273 22.4004 32.1273 26.3793C31.8067 28.4855 30.7367 30.0907 28.917 31.1947C28.1622 31.6096 27.3634 31.8734 26.5207 31.9859C22.5417 31.9859 18.5628 31.9859 14.5839 31.9859C12.4777 31.6654 10.8726 30.5953 9.76855 28.7757C9.35361 28.0207 9.08986 27.2219 8.97729 26.3793C8.97729 22.3853 8.97729 18.3913 8.97729 14.3974C9.35491 12.0678 10.6058 10.3873 12.7301 9.35591C13.3318 9.10392 13.9497 8.9306 14.5839 8.83594ZM27.018 11.7749C28.1713 11.7455 28.8872 12.2881 29.1657 13.4026C29.2251 14.5185 28.7202 15.2344 27.651 15.5503C26.4897 15.6546 25.7437 15.1497 25.4129 14.0356C25.3278 12.8333 25.8628 12.0797 27.018 11.7749ZM20.1001 14.0809C22.8561 14.0378 24.8983 15.2134 26.2268 17.6076C27.3234 20.1164 27.022 22.4374 25.3225 24.5707C23.4523 26.5302 21.2066 27.1481 18.5854 26.4245C16.0228 25.4448 14.5759 23.591 14.2448 20.8631C14.1799 18.1059 15.3479 16.0637 17.749 14.7365C18.501 14.3825 19.2847 14.164 20.1001 14.0809Z" fill="#2E3676"/>
<path opacity="0.899" fill-rule="evenodd" clip-rule="evenodd" d="M27.1537 13.0867C27.6579 13.0708 27.8915 13.312 27.8546 13.8101C27.6918 14.2267 27.3979 14.3548 26.9729 14.1944C26.6825 13.9449 26.6298 13.651 26.8146 13.3127C26.9127 13.2077 27.0258 13.1323 27.1537 13.0867Z" fill="#2E3676"/>
<path opacity="0.989" fill-rule="evenodd" clip-rule="evenodd" d="M20.281 15.3926C22.4754 15.3927 24.0805 16.3573 25.0964 18.2863C25.8877 20.2233 25.6466 22.0169 24.3729 23.6669C22.8477 25.2803 21.0165 25.7701 18.8793 25.1364C16.7715 24.2708 15.6562 22.6959 15.5334 20.4114C15.6147 18.4619 16.4888 16.9925 18.1559 16.003C18.8316 15.6645 19.5399 15.461 20.281 15.3926Z" fill="#2E3676"/>
</g>
<defs>
<clipPath id="clip0_2235_2591">
<rect width="23.15" height="23.15" fill="white" transform="translate(9 8.85938)"/>
</clipPath>
</defs>
</svg>
