<svg width="41" height="41" viewBox="0 0 41 41" fill="none" xmlns="http://www.w3.org/2000/svg">
<circle cx="20.7524" cy="20.2572" r="20.2572" fill="white"/>
<g clip-path="url(#clip0_2235_2600)">
<path opacity="0.992" fill-rule="evenodd" clip-rule="evenodd" d="M32.1273 13.4034C32.1273 13.7049 32.1273 14.0063 32.1273 14.3077C31.9968 14.8088 31.7255 15.2233 31.3134 15.5511C28.1484 17.6612 24.9833 19.7712 21.8183 21.8812C20.9743 22.3936 20.1303 22.3936 19.2863 21.8812C16.1212 19.7712 12.9562 17.6612 9.79116 15.5511C9.37913 15.2233 9.10784 14.8088 8.97729 14.3077C8.97729 14.0063 8.97729 13.7049 8.97729 13.4034C9.23513 12.5052 9.82292 11.955 10.7407 11.7531C17.2818 11.7229 23.8228 11.7229 30.3639 11.7531C31.2811 11.9548 31.8689 12.5049 32.1273 13.4034Z" fill="#2E3676"/>
<path opacity="0.994" fill-rule="evenodd" clip-rule="evenodd" d="M8.97729 16.5684C12.2532 18.7362 15.5237 20.914 18.7889 23.1019C19.9645 23.7349 21.1401 23.7349 22.3157 23.1019C25.5809 20.914 28.8514 18.7362 32.1273 16.5684C32.1273 20.1855 32.1273 23.8027 32.1273 27.4199C31.8689 28.3184 31.2811 28.8685 30.3639 29.0703C23.8228 29.1004 17.2818 29.1004 10.7407 29.0703C9.82292 28.8683 9.23513 28.3182 8.97729 27.4199C8.97729 23.8027 8.97729 20.1855 8.97729 16.5684Z" fill="#2E3676"/>
</g>
<defs>
<clipPath id="clip0_2235_2600">
<rect width="23.15" height="23.15" fill="white" transform="translate(9 8.85938)"/>
</clipPath>
</defs>
</svg>
