<svg width="32" height="20" viewBox="0 0 32 20" fill="none" xmlns="http://www.w3.org/2000/svg">
<path fill-rule="evenodd" clip-rule="evenodd" d="M1.83333 2.66667C1.3731 2.66667 1 2.29357 1 1.83333C1 1.3731 1.3731 1 1.83333 1H30.1667C30.6269 1 31 1.3731 31 1.83333C31 2.29357 30.6269 2.66667 30.1667 2.66667H1.83333ZM1.83333 10.9997C1.3731 10.9997 1 10.6266 1 10.1663C1 9.7061 1.3731 9.33301 1.83333 9.33301H30.1667C30.6269 9.33301 31 9.7061 31 10.1663C31 10.6266 30.6269 10.9997 30.1667 10.9997H1.83333ZM1 18.5003C1 18.9606 1.3731 19.3337 1.83333 19.3337H30.1667C30.6269 19.3337 31 18.9606 31 18.5003C31 18.0401 30.6269 17.667 30.1667 17.667H1.83333C1.3731 17.667 1 18.0401 1 18.5003Z" fill="#5967D1"/>
<path d="M0.5 1.83333C0.5 2.56971 1.09695 3.16667 1.83333 3.16667V2.16667C1.64924 2.16667 1.5 2.01743 1.5 1.83333H0.5ZM1.83333 0.5C1.09695 0.5 0.5 1.09695 0.5 1.83333H1.5C1.5 1.64924 1.64924 1.5 1.83333 1.5V0.5ZM30.1667 0.5H1.83333V1.5H30.1667V0.5ZM31.5 1.83333C31.5 1.09695 30.903 0.5 30.1667 0.5V1.5C30.3508 1.5 30.5 1.64924 30.5 1.83333H31.5ZM30.1667 3.16667C30.903 3.16667 31.5 2.56971 31.5 1.83333H30.5C30.5 2.01743 30.3508 2.16667 30.1667 2.16667V3.16667ZM1.83333 3.16667H30.1667V2.16667H1.83333V3.16667ZM0.5 10.1663C0.5 10.9027 1.09695 11.4997 1.83333 11.4997V10.4997C1.64924 10.4997 1.5 10.3504 1.5 10.1663H0.5ZM1.83333 8.83301C1.09695 8.83301 0.5 9.42996 0.5 10.1663H1.5C1.5 9.98225 1.64924 9.83301 1.83333 9.83301V8.83301ZM30.1667 8.83301H1.83333V9.83301H30.1667V8.83301ZM31.5 10.1663C31.5 9.42996 30.903 8.83301 30.1667 8.83301V9.83301C30.3508 9.83301 30.5 9.98225 30.5 10.1663H31.5ZM30.1667 11.4997C30.903 11.4997 31.5 10.9027 31.5 10.1663H30.5C30.5 10.3504 30.3508 10.4997 30.1667 10.4997V11.4997ZM1.83333 11.4997H30.1667V10.4997H1.83333V11.4997ZM1.83333 18.8337C1.64924 18.8337 1.5 18.6844 1.5 18.5003H0.5C0.5 19.2367 1.09695 19.8337 1.83333 19.8337V18.8337ZM30.1667 18.8337H1.83333V19.8337H30.1667V18.8337ZM30.5 18.5003C30.5 18.6844 30.3508 18.8337 30.1667 18.8337V19.8337C30.903 19.8337 31.5 19.2367 31.5 18.5003H30.5ZM30.1667 18.167C30.3508 18.167 30.5 18.3162 30.5 18.5003H31.5C31.5 17.7639 30.903 17.167 30.1667 17.167V18.167ZM1.83333 18.167H30.1667V17.167H1.83333V18.167ZM1.5 18.5003C1.5 18.3162 1.64924 18.167 1.83333 18.167V17.167C1.09695 17.167 0.5 17.7639 0.5 18.5003H1.5Z" fill="#5967D1"/>
</svg>
