<svg width="42" height="41" viewBox="0 0 42 41" fill="none" xmlns="http://www.w3.org/2000/svg">
<circle cx="20.9999" cy="20.2572" r="20.2572" fill="white"/>
<g clip-path="url(#clip0_2235_2607)">
<path opacity="0.991" fill-rule="evenodd" clip-rule="evenodd" d="M20.5124 8.83594C21.2056 8.83594 21.899 8.83594 22.5922 8.83594C27.1034 9.42141 30.3212 11.7726 32.2456 15.8895C32.7039 17.0144 32.9978 18.1749 33.1273 19.371C33.1273 20.0643 33.1273 20.7576 33.1273 21.4509C32.5418 25.9621 30.1906 29.1798 26.0738 31.1042C24.9489 31.5625 23.7884 31.8564 22.5922 31.9859C21.914 31.9859 21.2358 31.9859 20.5576 31.9859C18.6133 31.7875 16.8123 31.1695 15.1544 30.1321C13.6806 30.5857 12.2111 31.0529 10.7459 31.5338C10.7309 31.5187 10.7158 31.5036 10.7007 31.4886C11.1964 30.0693 11.6787 28.6451 12.1476 27.2158C10.9112 25.4885 10.1877 23.5669 9.97729 21.4509C9.97729 20.7576 9.97729 20.0643 9.97729 19.371C10.5628 14.8599 12.9139 11.6421 17.0308 9.71763C18.1557 9.25933 19.3162 8.96543 20.5124 8.83594ZM16.8047 14.1713C17.1517 14.1638 17.4984 14.1713 17.8447 14.1939C17.939 14.2297 18.022 14.2825 18.0934 14.3521C18.6007 15.4119 19.0453 16.4971 19.4272 17.6076C19.4287 17.7402 19.3911 17.8608 19.3142 17.9693C19.0447 18.3142 18.7583 18.6458 18.4551 18.9641C18.311 19.1358 18.2658 19.3317 18.3194 19.5519C19.4104 21.5401 21.0155 22.9342 23.1348 23.7342C23.3415 23.7743 23.5375 23.7442 23.7226 23.6438C24.1261 23.2208 24.4802 22.7612 24.7852 22.2647C24.9052 22.13 25.0559 22.0546 25.2373 22.0387C26.2984 22.4448 27.3308 22.9195 28.3345 23.4629C28.4863 23.5847 28.5466 23.743 28.5154 23.9377C28.49 25.2363 27.8721 26.118 26.6616 26.5828C26.156 26.8035 25.6285 26.894 25.0791 26.8541C22.7689 26.4749 20.7342 25.5254 18.975 24.0055C17.6975 22.834 16.6048 21.5153 15.697 20.0492C15.2912 19.3593 15.0199 18.6207 14.8831 17.8337C14.7338 16.4981 15.1482 15.3753 16.1265 14.4652C16.3431 14.3356 16.5692 14.2376 16.8047 14.1713Z" fill="#2E3676"/>
</g>
<defs>
<clipPath id="clip0_2235_2607">
<rect width="23.15" height="23.15" fill="white" transform="translate(10 8.85938)"/>
</clipPath>
</defs>
</svg>
