<svg width="38" height="36" viewBox="0 0 38 36" fill="none" xmlns="http://www.w3.org/2000/svg">
<path d="M20.2661 16.5H35.7724C36.5509 16.5 37.1821 17.1063 37.1821 17.8542C37.1821 18.6021 36.5509 19.2083 35.7724 19.2083H20.2661V34.1042C20.2661 34.8521 19.6349 35.4583 18.8564 35.4583C18.0779 35.4583 17.4467 34.8521 17.4467 34.1042V19.2083H1.94043C1.16189 19.2083 0.530762 18.6021 0.530762 17.8542C0.530762 17.1063 1.16189 16.5 1.94043 16.5H17.4467V1.60417C17.4467 0.856281 18.0779 0.25 18.8564 0.25C19.6349 0.25 20.2661 0.856281 20.2661 1.60417V16.5Z" fill="#5967D1"/>
</svg>
