<svg width="41" height="41" viewBox="0 0 41 41" fill="none" xmlns="http://www.w3.org/2000/svg">
<circle cx="20.5048" cy="20.2572" r="20.2572" fill="white"/>
<path opacity="0.984" fill-rule="evenodd" clip-rule="evenodd" d="M14.5812 9.40376C15.2819 9.37395 15.9772 9.41635 16.6673 9.53096C17.2975 9.71938 17.908 9.94834 18.4989 10.2178C22.7631 9.73446 26.1126 11.2439 28.5475 14.746C29.9162 16.997 30.3317 19.4137 29.794 21.9963C30.912 24.5467 30.488 26.8023 28.522 28.7632C27.0363 30.0496 25.3234 30.5075 23.3833 30.1369C22.8459 29.9866 22.3202 29.8085 21.806 29.6027C18.1024 30.1406 14.9903 29.0382 12.4697 26.2956C10.4734 23.8816 9.75258 21.1257 10.3074 18.0277C9.43981 16.3967 9.31262 14.7092 9.9258 12.9653C10.8394 10.9405 12.3912 9.75331 14.5812 9.40376ZM19.7709 13.0162C20.9323 13.0093 22.0516 13.2213 23.1289 13.6521C24.0129 14.0551 24.6658 14.691 25.0877 15.5601C25.374 16.285 25.2299 16.904 24.6552 17.4172C23.9446 17.7953 23.3086 17.7021 22.7473 17.1374C22.4464 16.5613 22.0648 16.044 21.6025 15.5855C20.6935 15.1339 19.7438 15.0322 18.7533 15.2803C18.3294 15.3945 17.9648 15.6066 17.6594 15.9163C17.322 16.4336 17.3813 16.9001 17.8375 17.3154C18.0801 17.4733 18.3345 17.609 18.6007 17.7225C19.8317 18.0704 21.0697 18.3927 22.3148 18.6892C23.4225 18.9416 24.3637 19.4759 25.1386 20.2918C25.7711 21.1818 25.9746 22.1655 25.7491 23.2428C25.5446 24.136 25.0782 24.8568 24.35 25.4052C23.0444 26.2703 21.6028 26.6858 20.0253 26.6517C18.8992 26.6421 17.8138 26.4301 16.769 26.0157C15.6093 25.4666 14.8037 24.5932 14.3523 23.3955C14.2146 22.882 14.2655 22.3902 14.5049 21.92C15.0911 21.3721 15.744 21.2787 16.4637 21.6401C16.8264 22.034 17.1062 22.4835 17.3032 22.9884C17.8752 24.0406 18.7656 24.5155 19.9744 24.413C20.7005 24.4493 21.3788 24.2882 22.0095 23.9297C22.7481 23.4048 22.9261 22.7348 22.5438 21.92C22.0859 21.4577 21.5347 21.161 20.8902 21.0296C19.8875 20.8001 18.8869 20.5627 17.8884 20.3173C16.8107 20.0629 15.9034 19.5287 15.1663 18.7146C14.3823 17.5437 14.3314 16.3395 15.0137 15.1022C15.6256 14.237 16.4481 13.6688 17.4813 13.3978C18.2373 13.1827 19.0005 13.0555 19.7709 13.0162Z" fill="#2E3676"/>
</svg>
