<svg width="46" height="46" viewBox="0 0 46 46" fill="none" xmlns="http://www.w3.org/2000/svg">
<rect width="46" height="46" rx="23" fill="#5967D1"/>
<path d="M31 15C33.76 17.72 34.8 21.52 34.1467 25.0667C34.6933 26.0267 35 27.1467 35 28.3333C35 30.1014 34.2976 31.7971 33.0474 33.0474C31.7971 34.2976 30.1014 35 28.3333 35C27.1467 35 26.0267 34.6933 25.0667 34.1467C21.52 34.8 17.72 33.76 15 31C12.24 28.28 11.2 24.48 11.8533 20.9333C11.3067 19.9733 11 18.8533 11 17.6667C11 15.8986 11.7024 14.2029 12.9526 12.9526C14.2029 11.7024 15.8986 11 17.6667 11C18.8533 11 19.9733 11.3067 20.9333 11.8533C24.48 11.2 28.28 12.24 31 15ZM23.0533 29.88C26.88 29.88 28.7867 28.04 28.7867 25.56C28.7867 23.9733 28.04 22.28 25.1467 21.6267L22.4933 21.04C21.48 20.8133 20.3333 20.5067 20.3333 19.56C20.3333 18.6 21.1333 17.9333 22.6 17.9333C25.5733 17.9333 25.2933 19.9733 26.7733 19.9733C27.5467 19.9733 28.2133 19.52 28.2133 18.7333C28.2133 16.9067 25.2933 15.5333 22.8133 15.5333C20.1333 15.5333 17.2667 16.68 17.2667 19.72C17.2667 21.1867 17.7867 22.7467 20.6667 23.4667L24.2533 24.3733C25.3333 24.64 25.6 25.24 25.6 25.8C25.6 26.7067 24.6933 27.6 23.0533 27.6C19.84 27.6 20.28 25.1333 18.56 25.1333C17.7867 25.1333 17.2267 25.6667 17.2267 26.4267C17.2267 27.9067 19 29.88 23.0533 29.88Z" fill="white"/>
</svg>
