<svg width="34" height="33" viewBox="0 0 34 33" fill="none" xmlns="http://www.w3.org/2000/svg">
<path d="M15.4336 1.82103C15.9266 0.303574 18.0734 0.303571 18.5664 1.82102L21.345 10.3726C21.5655 11.0512 22.1979 11.5106 22.9115 11.5106H31.9031C33.4986 11.5106 34.162 13.5524 32.8712 14.4902L25.5968 19.7753C25.0195 20.1947 24.778 20.9382 24.9985 21.6168L27.777 30.1683C28.2701 31.6858 26.5333 32.9476 25.2425 32.0098L17.9681 26.7247C17.3908 26.3053 16.6092 26.3053 16.0319 26.7247L8.75752 32.0098C7.4667 32.9476 5.72991 31.6858 6.22296 30.1683L9.00152 21.6168C9.22201 20.9382 8.98046 20.1947 8.40319 19.7753L1.12882 14.4902C-0.161998 13.5524 0.501395 11.5106 2.09694 11.5106H11.0885C11.8021 11.5106 12.4345 11.0512 12.655 10.3726L15.4336 1.82103Z" fill="#FB9D10"/>
</svg>
