<svg width="21" height="20" viewBox="0 0 21 20" fill="none" xmlns="http://www.w3.org/2000/svg">
<path d="M9.69038 0.744862C9.98838 -0.17228 11.2859 -0.172282 11.5839 0.74486L13.2632 5.91337C13.3965 6.32352 13.7787 6.60122 14.21 6.60122H19.6445C20.6088 6.60122 21.0098 7.83523 20.2296 8.40205L15.833 11.5964C15.4841 11.8499 15.3381 12.2992 15.4714 12.7093L17.1507 17.8778C17.4487 18.795 16.399 19.5576 15.6189 18.9908L11.2223 15.7965C10.8734 15.543 10.4009 15.543 10.052 15.7965L5.65541 18.9908C4.87525 19.5576 3.82554 18.795 4.12353 17.8778L5.80288 12.7093C5.93615 12.2992 5.79016 11.8499 5.44126 11.5964L1.04466 8.40205C0.264494 7.83523 0.665446 6.60122 1.62979 6.60122H7.06428C7.49554 6.60122 7.87776 6.32352 8.01103 5.91337L9.69038 0.744862Z" fill="#FB9D10"/>
</svg>
