<svg width="41" height="41" viewBox="0 0 41 41" fill="none" xmlns="http://www.w3.org/2000/svg">
<circle cx="20.495" cy="20.2572" r="20.2572" fill="white"/>
<g clip-path="url(#clip0_2235_2586)">
<path opacity="0.987" fill-rule="evenodd" clip-rule="evenodd" d="M30.1273 12.55C30.1273 12.8363 30.1273 13.1227 30.1273 13.409C28.9179 19.0258 27.7047 24.6476 26.4875 30.2742C26.0914 31.1141 25.481 31.3025 24.6563 30.8394C22.8733 29.5522 21.1024 28.2486 19.3436 26.9283C18.3879 27.8085 17.4459 28.7053 16.5176 29.6186C16.2651 29.8157 15.9787 29.8987 15.6585 29.8672C15.7802 28.0584 15.9083 26.2498 16.0429 24.4415C19.403 21.4731 22.7339 18.4739 26.0354 15.4437C26.0655 15.3985 26.0655 15.3533 26.0354 15.3081C25.9644 15.2693 25.889 15.2391 25.8093 15.2176C25.6238 15.2539 25.4505 15.3217 25.2893 15.4211C21.2086 17.9701 17.1318 20.5247 13.0587 23.085C11.2616 22.5112 9.46057 21.946 7.65552 21.3895C7.38268 21.2887 7.15661 21.1304 6.97729 20.9147C6.97729 20.764 6.97729 20.6133 6.97729 20.4626C7.10567 20.2391 7.28653 20.0658 7.51987 19.9426C14.5211 17.227 21.5294 14.5292 28.5448 11.8491C29.3157 11.572 29.8433 11.8056 30.1273 12.55Z" fill="#2E3676"/>
</g>
<defs>
<clipPath id="clip0_2235_2586">
<rect width="23.15" height="23.15" fill="white" transform="translate(7 9.85938)"/>
</clipPath>
</defs>
</svg>
