<svg width="41" height="41" viewBox="0 0 41 41" fill="none" xmlns="http://www.w3.org/2000/svg">
<circle cx="20.2572" cy="20.2572" r="20.2572" fill="white"/>
<path opacity="0.987" fill-rule="evenodd" clip-rule="evenodd" d="M33.05 13.9087C33.05 14.1292 33.05 14.3497 33.05 14.5702C32.7881 15.2465 32.4574 15.891 32.0579 16.5036C31.1447 17.7729 30.2119 19.0279 29.2595 20.2686C29.0248 20.56 28.8806 20.8907 28.827 21.2607C28.8464 21.5622 28.9566 21.8251 29.1578 22.0494C30.2109 23.0176 31.2115 24.0352 32.1596 25.1021C32.5503 25.5619 32.8471 26.0707 33.05 26.6285C33.05 26.798 33.05 26.9677 33.05 27.1372C32.8799 27.4524 32.6085 27.6305 32.2359 27.6715C31.1676 27.7023 30.0991 27.7277 29.0306 27.7478C28.0158 27.9055 27.117 27.6596 26.334 27.01C25.603 26.2622 24.8907 25.499 24.1971 24.7205C23.9539 24.5014 23.6741 24.3573 23.3576 24.288C22.9949 24.4128 22.7235 24.6502 22.5435 25.0003C22.4654 25.2177 22.3975 25.4382 22.34 25.6618C22.2947 26.1548 22.2438 26.6467 22.1874 27.1372C22.0954 27.3649 21.9343 27.526 21.704 27.6206C19.5338 28.0025 17.4986 27.6464 15.5985 26.5521C14.2829 25.7966 13.1721 24.8044 12.266 23.5757C10.1336 20.7541 8.37824 17.7013 7 14.4175C7 14.2309 7 14.0444 7 13.8579C7.11919 13.7139 7.27182 13.6206 7.45791 13.578C8.84869 13.5425 10.2394 13.5255 11.63 13.5271C11.9487 13.572 12.2116 13.7162 12.4186 13.9596C13.2064 15.8238 14.1392 17.6046 15.2169 19.3019C15.412 19.4969 15.607 19.692 15.8021 19.887C16.0586 20.1143 16.347 20.1822 16.667 20.0905C16.9094 19.8048 17.0535 19.4741 17.0995 19.0984C17.3079 17.9305 17.3248 16.7602 17.1503 15.5877C17.0905 14.6037 16.5732 14.061 15.5985 13.9596C15.6621 13.6552 15.8317 13.4262 16.1073 13.2727C16.4428 13.1005 16.799 12.9987 17.1758 12.9675C18.6225 12.795 20.064 12.8289 21.5005 13.0692C22.004 13.2517 22.2669 13.6163 22.2891 14.1631C22.2951 15.5371 22.2696 16.9108 22.2128 18.2843C22.2157 18.6253 22.2411 18.9645 22.2891 19.3019C22.3427 19.717 22.5632 19.9884 22.9505 20.116C23.3479 19.9227 23.6871 19.6513 23.9681 19.3019C25.149 17.7274 26.0988 16.0145 26.8173 14.1631C26.9175 13.8424 27.1294 13.6474 27.4533 13.578C28.9803 13.5679 30.5067 13.5425 32.0324 13.5017C32.2574 13.5223 32.4779 13.5646 32.6938 13.6289C32.8526 13.6781 32.9713 13.7714 33.05 13.9087Z" fill="#2E3676"/>
</svg>
