<svg width="34" height="34" viewBox="0 0 34 34" fill="none" xmlns="http://www.w3.org/2000/svg">
<path fill-rule="evenodd" clip-rule="evenodd" d="M28.4495 10.948C28.6155 10.402 28.4495 10 27.6545 10H25.0296C24.3616 10 24.0536 10.347 23.8866 10.73C23.8866 10.73 22.5516 13.926 20.6607 16.002C20.0487 16.604 19.7707 16.795 19.4367 16.795C19.2697 16.795 19.0187 16.604 19.0187 16.057V10.948C19.0187 10.292 18.8347 10 18.2787 10H14.1508C13.7338 10 13.4828 10.304 13.4828 10.593C13.4828 11.214 14.4288 11.358 14.5258 13.106V16.904C14.5258 17.737 14.3728 17.888 14.0388 17.888C13.1488 17.888 10.9839 14.677 9.6989 11.003C9.44991 10.288 9.19791 10 8.52693 10H5.89998C5.15 10 5 10.347 5 10.73C5 11.412 5.88998 14.8 9.14491 19.281C11.3149 22.341 14.3698 24 17.1527 24C18.8217 24 19.0277 23.632 19.0277 22.997V20.684C19.0277 19.947 19.1857 19.8 19.7147 19.8C20.1047 19.8 20.7717 19.992 22.3296 21.467C24.1096 23.216 24.4026 24 25.4046 24H28.0295C28.7795 24 29.1555 23.632 28.9395 22.904C28.7015 22.18 27.8515 21.129 26.7245 19.882C26.1126 19.172 25.1946 18.407 24.9156 18.024C24.5266 17.533 24.6376 17.314 24.9156 16.877C24.9156 16.877 28.1155 12.451 28.4485 10.948" fill="white"/>
</svg>
