<svg width="41" height="41" viewBox="0 0 41 41" fill="none" xmlns="http://www.w3.org/2000/svg">
<circle cx="20.2477" cy="20.2572" r="20.2572" fill="white"/>
<g clip-path="url(#clip0_2235_2573)">
<path opacity="0.968" fill-rule="evenodd" clip-rule="evenodd" d="M19.2862 8.83594C20.3262 8.83594 21.3661 8.83594 22.4061 8.83594C24.1834 8.96095 25.9016 9.36035 27.5606 10.0341C29.1095 10.7543 30.172 11.9224 30.7482 13.5383C31.1338 14.6374 31.375 15.7678 31.4716 16.9294C31.6502 19.2099 31.5145 21.4706 31.0647 23.7116C30.4548 26.0697 29.0004 27.6447 26.7015 28.4366C24.2317 29.1536 21.7148 29.4098 19.1506 29.2052C18.4627 30.0894 17.7241 30.9334 16.9351 31.7373C16.8189 31.8316 16.6983 31.9145 16.5734 31.9859C16.3774 31.9859 16.1815 31.9859 15.9856 31.9859C15.7043 31.8466 15.531 31.6206 15.4656 31.3077C15.4092 30.3748 15.379 29.4403 15.3752 28.5044C13.2237 27.845 11.7617 26.4584 10.9893 24.3446C10.6451 23.3319 10.4341 22.292 10.3563 21.2248C10.2479 19.5342 10.2781 17.8461 10.4467 16.1607C10.6012 14.5819 11.1136 13.135 11.984 11.8201C12.7885 10.8212 13.8058 10.1204 15.036 9.71763C16.4222 9.24601 17.839 8.95211 19.2862 8.83594ZM20.1453 10.4637C22.0017 10.4162 23.8254 10.6348 25.6163 11.1193C26.443 11.3367 27.1965 11.6985 27.8771 12.2044C28.631 12.9203 29.1359 13.7869 29.3918 14.8043C29.8392 16.6017 29.9899 18.4253 29.8439 20.2753C29.8329 21.468 29.637 22.6285 29.2561 23.7568C28.6381 25.3094 27.5303 26.3267 25.9328 26.8088C23.8169 27.3987 21.6616 27.6399 19.4671 27.5323C18.4894 28.7362 17.4946 29.9268 16.4829 31.1042C16.3201 31.271 16.192 31.2483 16.0986 31.0364C16.076 29.665 16.0684 28.2935 16.076 26.9219C14.3578 26.4473 13.1747 25.3772 12.5266 23.7116C12.1416 22.5993 11.9457 21.4539 11.9388 20.2753C11.9228 19.3557 11.9379 18.4363 11.984 17.5172C12.0285 16.0583 12.3902 14.6867 13.0692 13.4026C13.6999 12.3964 14.5816 11.6955 15.7143 11.3001C17.1538 10.7922 18.6308 10.5134 20.1453 10.4637Z" fill="#2E3676"/>
<path opacity="0.91" fill-rule="evenodd" clip-rule="evenodd" d="M20.6427 12.9512C23.5631 13.0168 25.4697 14.4335 26.3624 17.2014C26.5644 17.9427 26.6397 18.6963 26.5885 19.4621C26.386 19.6534 26.2052 19.6384 26.0459 19.4169C26.073 17.8552 25.6058 16.4686 24.6443 15.2571C23.8895 14.4387 22.9626 13.9187 21.8635 13.6972C21.4241 13.6401 20.987 13.5798 20.5523 13.5164C20.4145 13.2956 20.4447 13.1072 20.6427 12.9512Z" fill="#2E3676"/>
<path opacity="0.973" fill-rule="evenodd" clip-rule="evenodd" d="M16.7544 13.6292C17.0945 13.5792 17.3733 13.6848 17.5909 13.9458C18.1666 14.6296 18.664 15.3681 19.083 16.1613C19.1993 16.5168 19.154 16.8484 18.9473 17.156C18.7062 17.367 18.465 17.578 18.2239 17.789C18.1392 17.9113 18.1016 18.047 18.1108 18.1959C18.5378 19.8566 19.5175 21.0698 21.0498 21.8357C21.3512 21.9867 21.6677 22.062 21.9993 22.0618C22.0783 22.0405 22.1536 22.0104 22.2254 21.9714C22.4407 21.6917 22.6668 21.4204 22.9036 21.1575C23.2418 20.9655 23.5884 20.9504 23.9436 21.1123C24.7439 21.5845 25.4749 22.1497 26.1365 22.8079C26.3119 23.2241 26.2666 23.616 26.0008 23.9834C25.6468 24.594 25.1419 25.0235 24.4861 25.2721C24.3053 25.3022 24.1244 25.3022 23.9436 25.2721C21.7419 24.4696 19.8203 23.2413 18.1787 21.5871C16.703 19.8724 15.6254 17.9281 14.9458 15.7543C14.9874 15.3506 15.1305 14.9889 15.3753 14.6692C15.7675 14.2231 16.2272 13.8765 16.7544 13.6292Z" fill="#2E3676"/>
<path opacity="0.908" fill-rule="evenodd" clip-rule="evenodd" d="M21.0948 14.4883C23.6404 14.6525 24.9968 16.0089 25.1642 18.5576C25.1754 18.9157 25.0096 19.0438 24.6668 18.9419C24.6291 18.9043 24.5914 18.8666 24.5538 18.8289C24.5185 16.5479 23.3655 15.2894 21.0948 15.0535C20.9205 14.8685 20.9205 14.6802 21.0948 14.4883Z" fill="#2E3676"/>
<path opacity="0.912" fill-rule="evenodd" clip-rule="evenodd" d="M21.5019 16.0708C22.7003 16.0109 23.4163 16.5685 23.6496 17.7437C23.6798 17.9396 23.6798 18.1356 23.6496 18.3315C23.4708 18.5119 23.2899 18.5119 23.107 18.3315C23.1218 17.7565 22.9184 17.2818 22.4966 16.9072C22.1557 16.7675 21.8091 16.6545 21.4567 16.5681C21.3912 16.3941 21.4062 16.2283 21.5019 16.0708Z" fill="#2E3676"/>
</g>
<defs>
<clipPath id="clip0_2235_2573">
<rect width="23.15" height="23.15" fill="white" transform="translate(9 8.85938)"/>
</clipPath>
</defs>
</svg>
