<svg width="20" height="20" viewBox="0 0 20 20" fill="none" xmlns="http://www.w3.org/2000/svg">
<rect width="20" height="20" rx="10" fill="white"/>
<path d="M3.12501 10.0001C3.12482 8.79317 3.44235 7.60748 4.04568 6.5622C4.64901 5.51692 5.51688 4.64888 6.56205 4.04535C7.60721 3.44181 8.79284 3.12405 9.99974 3.124C11.2066 3.12396 12.3923 3.44163 13.4375 4.04508C13.581 4.12665 13.7509 4.14816 13.9102 4.10492C14.0695 4.06168 14.2052 3.95719 14.2877 3.81426C14.3702 3.67133 14.3928 3.50156 14.3507 3.342C14.3085 3.18244 14.2049 3.04605 14.0625 2.96258C12.5136 2.06831 10.7129 1.7101 8.93962 1.94353C7.16637 2.17695 5.51969 2.98896 4.25495 4.25361C2.99022 5.51826 2.17811 7.16489 1.94457 8.93812C1.71104 10.7114 2.06912 12.5121 2.96329 14.0611C3.85747 15.6101 5.23776 16.8207 6.89011 17.5053C8.54245 18.1899 10.3745 18.3101 12.1022 17.8474C13.8298 17.3846 15.3565 16.3648 16.4455 14.9459C17.5344 13.5271 18.1248 11.7886 18.125 10.0001C18.125 9.83432 18.0592 9.67535 17.942 9.55814C17.8247 9.44093 17.6658 9.37508 17.5 9.37508C17.3343 9.37508 17.1753 9.44093 17.0581 9.55814C16.9409 9.67535 16.875 9.83432 16.875 10.0001C16.875 11.8234 16.1507 13.5721 14.8614 14.8614C13.5721 16.1508 11.8234 16.8751 10 16.8751C8.17665 16.8751 6.42797 16.1508 5.13865 14.8614C3.84934 13.5721 3.12501 11.8234 3.12501 10.0001Z" fill="#EA5D2F"/>
<path d="M19.1926 4.19231C19.2507 4.1342 19.2968 4.06522 19.3282 3.98929C19.3597 3.91337 19.3758 3.83199 19.3758 3.74981C19.3758 3.66763 19.3597 3.58626 19.3282 3.51033C19.2968 3.43441 19.2507 3.36542 19.1926 3.30731C19.1344 3.2492 19.0655 3.20311 18.9895 3.17166C18.9136 3.14021 18.8322 3.12402 18.7501 3.12402C18.6679 3.12402 18.5865 3.14021 18.5106 3.17166C18.4347 3.20311 18.3657 3.2492 18.3076 3.30731L10.0001 11.6161L6.69256 8.30731C6.63445 8.2492 6.56546 8.20311 6.48954 8.17166C6.41361 8.14021 6.33224 8.12402 6.25006 8.12402C6.16788 8.12402 6.0865 8.14021 6.01058 8.17166C5.93465 8.20311 5.86567 8.2492 5.80756 8.30731C5.74945 8.36542 5.70335 8.43441 5.6719 8.51033C5.64045 8.58626 5.62427 8.66763 5.62427 8.74981C5.62427 8.83199 5.64045 8.91337 5.6719 8.98929C5.70335 9.06522 5.74945 9.1342 5.80756 9.19231L9.55756 12.9423C9.61561 13.0005 9.68458 13.0467 9.76052 13.0782C9.83645 13.1097 9.91785 13.1259 10.0001 13.1259C10.0823 13.1259 10.1637 13.1097 10.2396 13.0782C10.3155 13.0467 10.3845 13.0005 10.4426 12.9423L19.1926 4.19231Z" fill="#EA5D2F"/>
</svg>
